<?xml version="1.0" standalone="no"?>
<!DOCTYPE svg PUBLIC "-//W3C//DTD SVG 20010904//EN"
 "http://www.w3.org/TR/2001/REC-SVG-20010904/DTD/svg10.dtd">
<svg version="1.0" xmlns="http://www.w3.org/2000/svg"
 width="457.000000pt" height="213.000000pt" viewBox="0 0 457.000000 213.000000"
 preserveAspectRatio="xMidYMid meet">
<metadata>
Created by potrace 1.16, written by Peter Selinger 2001-2019
</metadata>
<g transform="translate(0.000000,213.000000) scale(0.100000,-0.100000)"
fill="#000000" stroke="none">
<path d="M2250 2075 c-30 -7 -70 -16 -87 -20 -18 -4 -30 -11 -27 -16 3 -5 -2
-6 -10 -3 -8 3 -28 -1 -44 -10 -16 -8 -33 -12 -36 -8 -4 3 -10 2 -14 -4 -4 -6
-26 -21 -48 -33 -41 -23 -42 -23 -112 -7 -39 9 -85 16 -101 16 -17 0 -31 4
-31 9 0 5 -47 8 -105 8 -58 0 -105 -4 -105 -9 0 -4 -15 -8 -34 -8 -47 0 -230
-39 -234 -49 -2 -5 -12 -6 -24 -3 -16 4 -19 2 -13 -8 6 -10 4 -12 -9 -7 -9 4
-31 0 -48 -9 -16 -8 -36 -13 -44 -10 -9 3 -12 1 -9 -4 3 -6 1 -10 -6 -10 -18
0 -119 -53 -119 -63 0 -4 -4 -6 -8 -3 -14 8 -110 -82 -136 -127 -66 -114 -38
-196 116 -348 31 -31 60 -54 63 -51 3 3 5 3 5 0 0 -3 -34 -30 -76 -60 -42 -29
-93 -67 -113 -83 -20 -17 -55 -44 -79 -60 -24 -16 -53 -41 -66 -56 -12 -14
-35 -33 -49 -41 -15 -7 -52 -36 -82 -63 -83 -74 -173 -158 -192 -178 -10 -10
-47 -48 -83 -85 -123 -126 -157 -173 -232 -323 -41 -80 -45 -163 -13 -218 26
-44 126 -97 207 -111 118 -19 330 -7 423 25 22 7 84 22 137 33 58 13 132 38
185 63 48 23 104 47 124 53 20 6 49 21 65 33 88 67 125 93 135 93 5 0 9 3 7 7
-2 5 13 24 34 45 l38 36 26 -34 26 -34 88 0 88 0 46 -67 c25 -38 52 -75 59
-84 11 -15 57 -18 380 -24 l367 -8 14 34 c8 19 17 51 21 72 7 38 19 47 29 25
8 -16 -2 34 -11 57 -4 12 -2 16 7 13 7 -2 27 -42 45 -88 50 -130 63 -157 68
-140 17 55 51 147 70 189 15 35 26 48 35 42 10 -6 7 -20 -11 -62 -66 -150 -78
-181 -75 -190 2 -6 23 37 47 95 24 58 47 103 52 100 5 -3 9 9 9 25 l0 31 345
0 c269 0 345 3 345 13 0 9 -23 11 -90 9 l-89 -3 -3 133 -3 133 -22 -35 c-28
-43 -30 -61 -3 -29 l19 24 1 -112 0 -111 -66 -4 c-48 -2 -68 1 -74 11 -5 10
-9 10 -14 2 -4 -7 -40 -11 -92 -11 l-84 0 0 270 0 271 83 -3 82 -3 5 -133 5
-133 51 78 c28 43 61 96 72 118 40 75 40 75 136 75 62 0 86 -3 86 -12 0 -10
111 -12 530 -10 291 1 530 -1 530 -5 0 -5 -21 -35 -48 -67 -26 -33 -63 -81
-82 -107 -29 -40 -87 -114 -130 -166 -8 -9 -46 -13 -127 -13 -98 0 -118 -3
-129 -17 -8 -10 -37 -53 -66 -95 l-51 -78 -91 0 -91 -1 -27 -42 c-14 -23 -40
-61 -57 -84 l-31 -43 -394 0 -394 0 -10 28 c-6 15 -11 22 -11 15 -1 -6 3 -23
9 -37 l10 -26 393 0 394 0 20 23 c11 12 38 49 59 82 22 33 43 63 49 68 5 4 47
7 93 6 45 -1 84 0 86 2 2 2 12 18 22 34 11 17 39 58 64 92 l45 62 116 1 115 0
55 66 c50 61 87 109 166 216 17 24 41 55 52 70 12 14 21 29 21 33 0 3 -243 5
-540 3 -425 -2 -541 0 -545 10 -3 8 -32 12 -94 12 l-90 0 -32 -57 c-18 -32
-54 -89 -81 -127 l-47 -68 -3 123 -3 124 -90 0 -90 0 -3 -260 c-3 -238 -4
-258 -18 -235 -16 26 -15 18 2 -37 6 -23 5 -23 -79 -23 l-85 0 -19 45 -18 45
-81 0 -81 0 -9 -47 -9 -48 -156 -3 -155 -2 -70 84 c-38 46 -71 83 -73 81 -5
-6 63 -96 88 -117 34 -29 25 -38 -38 -38 l-59 0 -4 76 c-2 41 1 79 5 83 4 4 1
14 -8 21 -13 11 -15 1 -15 -89 l0 -101 -85 0 -85 0 0 275 0 275 85 0 85 0 0
-80 c0 -81 8 -96 32 -61 7 10 38 46 69 80 l57 61 58 0 c33 0 76 -3 96 -6 l38
-7 -43 -43 c-95 -97 -155 -160 -167 -176 -14 -20 -3 -38 84 -139 23 -26 52
-63 66 -83 14 -19 28 -36 32 -36 8 0 50 122 44 128 -3 2 -13 -19 -23 -47 -10
-28 -21 -51 -25 -51 -3 0 -17 14 -30 30 -13 17 -49 61 -80 99 -32 38 -58 75
-58 82 0 8 52 68 116 134 l115 120 -108 5 -108 5 -72 -72 c-40 -40 -73 -69
-74 -65 0 4 -2 36 -2 72 l-2 65 -93 1 c-51 0 -95 -3 -98 -8 -6 -10 -425 -11
-439 0 -6 4 -21 25 -34 47 -35 60 -65 94 -193 222 -73 72 -114 121 -111 130 3
7 8 12 11 9 6 -7 53 26 94 67 17 18 29 25 25 17 -5 -8 0 -5 9 8 9 12 20 22 25
22 12 0 91 51 101 65 5 7 8 7 8 0 0 -5 5 -2 11 8 6 11 32 29 58 40 25 12 62
34 81 48 19 15 73 48 120 74 47 26 91 53 99 59 7 6 37 25 66 41 29 17 74 43
99 59 47 28 47 28 84 12 20 -10 46 -29 56 -43 19 -25 19 -26 0 -36 -30 -16
-118 -108 -120 -126 -2 -9 -10 -43 -19 -75 -15 -51 -15 -68 -5 -115 7 -31 12
-70 11 -88 0 -18 4 -35 9 -38 6 -3 10 3 10 14 0 12 4 21 9 21 5 0 8 11 6 25
-1 14 2 25 8 25 6 0 8 3 4 6 -11 12 80 135 168 226 37 39 44 54 20 44 -12 -4
-15 2 -15 28 0 19 -2 40 -5 48 -6 16 40 39 63 31 15 -5 15 -4 -1 13 -15 16
-19 17 -27 4 -5 -8 -12 -11 -16 -7 -4 4 -14 1 -22 -6 -13 -9 -14 -9 -8 1 4 6
2 12 -4 12 -6 0 -15 11 -20 24 -5 14 -21 32 -35 42 -14 9 -25 22 -25 28 0 7
29 25 65 41 36 16 65 33 65 38 0 4 5 5 10 2 6 -3 10 -1 10 5 0 6 5 8 10 5 6
-3 10 -1 10 4 0 6 4 10 8 9 14 -5 111 44 116 58 6 17 -10 17 -84 -1z m-413
-180 c-1 -5 -21 -22 -45 -36 -23 -14 -49 -34 -57 -45 -8 -10 -15 -16 -15 -11
0 4 -15 -3 -33 -15 -19 -13 -73 -49 -120 -81 -48 -31 -87 -62 -87 -69 0 -6 -3
-9 -6 -5 -4 3 -26 -9 -49 -28 -23 -19 -46 -35 -51 -35 -5 0 -42 -29 -83 -64
-41 -36 -77 -64 -80 -63 -3 0 -25 -18 -49 -41 -55 -54 -78 -66 -92 -50 -5 7
-24 29 -40 48 -96 112 -91 210 15 301 53 45 189 114 205 104 6 -3 10 -1 10 5
0 7 7 10 15 6 8 -3 15 -1 15 4 0 4 53 21 118 36 64 15 118 31 120 35 2 4 22 5
45 2 25 -3 37 -1 30 4 -7 5 39 9 111 8 77 0 124 -4 123 -10z m253 -199 c0 -51
-3 -56 -50 -104 -28 -28 -59 -72 -70 -96 -13 -32 -24 -44 -34 -40 -10 4 -13
14 -8 32 3 15 6 39 6 55 1 15 5 27 9 27 5 0 5 5 2 10 -3 6 -2 10 4 10 5 0 15
16 21 36 11 33 93 123 113 124 4 0 7 -24 7 -54z m-980 -491 c36 -31 87 -73
114 -96 27 -22 62 -59 77 -83 16 -24 40 -55 54 -70 17 -18 21 -28 12 -31 -6
-3 -139 -6 -294 -7 l-283 -3 41 -60 c23 -33 57 -77 75 -98 19 -20 34 -40 34
-45 0 -4 25 -34 55 -67 30 -33 55 -63 55 -67 0 -5 9 -17 20 -28 18 -18 33 -20
133 -20 114 0 137 -7 137 -38 0 -21 -45 -60 -116 -99 -34 -18 -65 -41 -68 -49
-4 -9 -13 -14 -21 -10 -8 3 -15 1 -15 -4 0 -5 -8 -9 -17 -9 -23 1 -167 -52
-171 -62 -2 -5 -10 -5 -18 -2 -8 3 -14 0 -14 -7 0 -7 -7 -10 -15 -6 -8 3 -15
0 -15 -5 0 -6 -9 -9 -20 -6 -11 3 -20 1 -20 -5 0 -6 -7 -7 -16 -4 -10 4 -13 2
-8 -6 5 -7 -1 -9 -19 -6 -15 3 -28 2 -29 -2 -5 -14 -178 -33 -328 -37 -120 -3
-155 0 -204 15 -51 15 -62 23 -79 56 -18 34 -19 43 -8 90 12 54 72 161 133
237 33 42 266 278 329 334 19 16 68 58 109 93 41 34 86 73 100 86 14 12 46 36
71 53 25 17 52 39 60 49 16 19 89 74 98 74 3 0 35 -25 71 -55z m327 -305 c425
0 433 0 433 -20 0 -13 -14 -26 -39 -40 -40 -20 -81 -67 -81 -92 0 -7 9 1 19
18 18 30 77 74 99 74 10 0 11 -236 3 -438 -1 -13 1 -28 5 -33 3 -5 141 -9 320
-9 270 0 315 -2 320 -15 4 -8 -3 -48 -13 -87 l-20 -73 -366 -3 -366 -2 -58 85
-58 85 -86 0 -87 0 -28 37 c-16 21 -46 64 -66 95 l-38 58 -110 0 c-121 0 -142
6 -164 49 -8 15 -30 43 -49 62 -19 19 -48 53 -63 75 -16 23 -50 69 -76 102
-27 33 -48 66 -48 73 0 9 22 10 92 5 50 -3 286 -6 525 -6z"/>
<path d="M866 868 c4 -7 25 -37 47 -65 l39 -53 387 0 387 0 17 35 c9 19 35 48
58 65 l42 30 -492 0 c-391 0 -491 -3 -485 -12z"/>
<path d="M990 704 c0 -4 17 -26 38 -49 20 -24 44 -53 52 -64 15 -21 20 -22
324 -22 l308 -1 0 69 0 68 -361 3 c-198 1 -361 -1 -361 -4z"/>
<path d="M1380 513 c1 -15 35 -70 62 -102 l27 -31 196 2 195 3 -47 35 c-27 19
-55 50 -63 67 l-15 33 -177 0 c-98 0 -178 -3 -178 -7z"/>
<path d="M1670 335 c0 -3 15 -25 34 -50 19 -24 37 -54 41 -65 6 -20 14 -20
364 -20 l359 0 16 65 c9 35 16 67 16 70 0 3 -187 5 -415 5 -228 0 -415 -2
-415 -5z"/>
<path d="M2548 1377 c-57 -102 -225 -237 -333 -268 -80 -22 -172 -18 -222 10
-23 13 -40 28 -37 32 3 5 -2 6 -10 3 -25 -9 44 -73 96 -89 50 -15 124 -21 148
-12 8 3 33 11 55 18 64 19 149 65 176 94 13 15 38 42 55 59 36 35 84 115 84
139 0 8 5 17 12 19 9 3 9 6 0 11 -6 5 -16 -2 -24 -16z"/>
<path d="M2637 1283 c-3 -10 -21 -55 -40 -101 -20 -46 -39 -97 -42 -113 -4
-17 -19 -58 -35 -92 -15 -34 -44 -107 -65 -161 -34 -92 -36 -102 -25 -142 18
-64 6 -76 -19 -19 -22 49 -22 51 -6 95 28 74 28 88 1 32 -14 -30 -26 -64 -25
-75 1 -27 57 -148 58 -126 1 9 25 77 54 150 30 74 57 146 61 162 6 27 8 27 85
27 l78 0 37 -81 c20 -44 36 -85 36 -90 0 -17 103 -250 108 -244 3 2 -3 22 -12
43 -16 36 -16 42 -2 77 20 47 20 59 0 23 -15 -28 -34 -38 -34 -18 0 6 7 26 15
45 14 34 13 39 -30 138 -24 56 -47 115 -51 131 -4 16 -22 65 -41 110 -20 44
-48 116 -63 159 -32 89 -35 95 -43 70z"/>
<path d="M3283 861 c-29 -42 -117 -182 -143 -229 -9 -15 -20 -34 -25 -42 -7
-10 -12 33 -15 140 l-5 155 -62 3 -63 3 0 -246 0 -245 70 0 c61 0 71 3 82 21
7 12 36 57 63 100 28 43 66 104 85 136 l35 57 5 -159 5 -160 65 0 65 0 3 253
2 252 -70 0 -70 0 -27 -39z"/>
<path d="M1910 640 l0 -250 65 0 65 0 0 114 c0 63 4 117 8 120 5 3 19 -13 33
-34 13 -22 27 -40 30 -40 4 0 32 -34 63 -75 l56 -75 70 0 c66 0 86 9 57 27 -7
4 -27 28 -44 53 -17 25 -43 56 -58 70 -14 13 -36 40 -48 60 -12 19 -28 40 -36
46 -12 10 -9 18 22 55 20 24 49 56 66 72 16 15 44 45 61 67 l32 40 -71 0 c-50
0 -72 -4 -78 -14 -4 -8 -32 -39 -60 -70 -29 -31 -60 -68 -69 -81 -9 -14 -20
-25 -25 -25 -5 0 -9 43 -9 95 l0 95 -65 0 -65 0 0 -250z"/>
<path d="M2566 878 c-13 -46 -70 -215 -76 -223 -13 -19 -80 -227 -80 -249 0
-3 27 -6 60 -6 l59 0 14 48 14 47 86 3 87 3 22 -46 22 -45 63 0 c44 0 63 4 63
13 0 6 -23 64 -51 127 -28 63 -55 131 -61 150 -6 19 -18 53 -28 75 -10 22 -25
57 -33 78 l-16 37 -71 0 c-48 0 -72 -4 -74 -12z"/>
<path d="M3546 855 c26 -15 47 -38 59 -65 l18 -40 388 0 389 0 45 58 c25 31
45 60 45 65 0 4 -222 7 -492 7 l-493 0 41 -25z"/>
<path d="M3643 633 l0 -73 303 0 303 0 18 26 c10 15 35 45 56 67 20 23 37 44
37 48 0 3 -161 6 -359 6 l-359 -1 1 -73z"/>
<path d="M3600 480 c-12 -23 -39 -52 -63 -68 l-42 -27 190 -3 c104 -1 194 -1
200 2 10 3 95 121 95 131 0 3 -81 5 -180 5 l-180 0 -20 -40z"/>
<path d="M2796 331 c-2 -3 3 -34 12 -68 l17 -63 385 0 385 0 40 63 c22 34 41
65 43 68 4 9 -877 9 -882 0z"/>
</g>
</svg>
